<svg width="24" height="24" viewBox="0 0 24 24" fill="none" xmlns="http://www.w3.org/2000/svg">
<g clip-path="url(#clip0_127_35)">
<path d="M1.28516 14.5194L10.7003 3.59785C11.3841 2.80462 12.6131 2.80462 13.2969 3.59785L22.712 14.5194" stroke="#F6F6F5" stroke-width="1.71415" stroke-linecap="round" stroke-linejoin="round"/>
<path d="M4.5823 10.7044L10.6986 3.57866C11.3826 2.78172 12.616 2.78172 13.3 3.57866L19.4163 10.7044L19.7656 13.1966C20.0804 15.4425 20.0649 17.7223 19.7199 19.9637C19.5452 21.098 18.5692 21.9352 17.4215 21.9352H6.57695C5.42936 21.9352 4.45338 21.098 4.27871 19.9637C3.93356 17.7223 3.91814 15.4425 4.23294 13.1966L4.5823 10.7044Z" stroke="#F6F6F5" stroke-width="1.71415" stroke-linejoin="round"/>
<path d="M11.9992 13.8657C13.5779 13.8657 14.8577 15.1455 14.8577 16.7242V21.9351H9.14062V16.7242C9.14062 15.1455 10.4204 13.8657 11.9992 13.8657Z" stroke="#F6F6F5" stroke-width="1.71415" stroke-linecap="round" stroke-linejoin="round"/>
</g>
<defs>
<clipPath id="clip0_127_35">
<rect width="23.998" height="23.998" fill="white"/>
</clipPath>
</defs>
</svg>
