<svg width="25" height="25" viewBox="0 0 25 25" fill="none" xmlns="http://www.w3.org/2000/svg">
<g clip-path="url(#clip0_701_227)">
<path d="M23.3772 14.337C23.3767 13.7758 23.2284 13.2246 22.9475 12.7388C22.6665 12.253 22.2627 11.8497 21.7763 11.5693C21.2902 11.289 20.7389 11.1415 20.1777 11.1416C19.6165 11.1417 19.3556 11.2904 18.8697 11.571L18.5791 7.84693C18.5791 7.42275 18.4106 7.01595 18.1107 6.71602C17.8108 6.41608 17.404 6.24758 16.9798 6.24758L13.7026 5.8952C13.9846 5.40904 14.1385 5.20956 14.1394 4.64753C14.1402 4.08548 13.993 3.53313 13.7125 3.04609C13.4319 2.55906 13.028 2.15454 12.5414 1.87327C12.0548 1.592 11.5027 1.44391 10.9407 1.44391C10.3786 1.44391 9.8265 1.592 9.33989 1.87327C8.8533 2.15454 8.44939 2.55906 8.16887 3.04609C7.88835 3.53313 7.74111 4.08548 7.74197 4.64753C7.74284 5.20956 7.88686 5.40904 8.16887 5.8952L4.18498 6.24758C3.76081 6.24758 3.35401 6.41608 3.05407 6.71602C2.75413 7.01595 2.58563 7.42275 2.58563 7.84693L2.63554 9.67135C2.65752 10.4748 3.44572 11.0452 4.22697 11.2343C4.79295 11.3712 5.32166 11.6571 5.73979 12.0752C6.33966 12.6751 6.67666 13.4887 6.67666 14.337C6.67666 15.1854 6.33966 15.999 5.73979 16.5988C5.32166 17.0169 4.79295 17.3028 4.22697 17.4398C3.44525 17.6289 2.65633 18.1987 2.63306 19.0026L2.58563 20.6417C2.58563 21.0659 2.75413 21.4727 3.05407 21.7727C5.38536 23.3138 16.0933 23.1575 18.1107 21.7727C18.4106 21.4727 18.5791 21.0659 18.5791 20.6417L18.8697 17.1047C19.3556 17.3853 19.6165 17.5322 20.1777 17.5324C20.7389 17.5325 21.2902 17.3851 21.7763 17.1047C22.2627 16.8243 22.6665 16.421 22.9475 15.9352C23.2284 15.4494 23.3767 14.8982 23.3772 14.337Z" stroke="black" stroke-width="1.71415" stroke-linecap="round" stroke-linejoin="round"/>
</g>
<defs>
<clipPath id="clip0_701_227">
<rect width="23.998" height="23.998" fill="white" transform="translate(0.982361 0.158295)"/>
</clipPath>
</defs>
</svg>
