<svg width="24" height="24" viewBox="0 0 24 24" fill="none" xmlns="http://www.w3.org/2000/svg">
<g clip-path="url(#clip0_127_34)">
<path d="M9.88297 14.1211L1.49414 22.5099" stroke="#F6F6F5" stroke-width="1.71415" stroke-linecap="round" stroke-linejoin="round"/>
<path d="M18.2258 3.07989C20.0855 2.27753 21.9656 4.07243 21.1538 5.928C20.6973 6.97172 20.1424 7.99788 19.3801 9.2345C20.4415 10.2746 21.2683 11.1397 22.0348 12.0335C23.3595 13.5782 22.1925 15.9018 20.1726 15.6554C19.2821 15.5468 18.3667 15.3796 17.3029 15.1376C16.9139 15.0492 16.5127 15.235 16.3305 15.5898C15.6597 16.8962 15.0607 17.9471 14.399 18.9657C13.3063 20.6478 10.7722 20.2414 10.3942 18.2715C10.1562 17.0313 10.041 15.7528 9.99892 14.1173C8.407 14.0515 7.1518 13.9235 5.92814 13.689C3.9436 13.3087 3.49456 10.7537 5.19035 9.65498C6.176 9.01634 7.21412 8.43116 8.51242 7.78317C8.874 7.6027 9.06477 7.19643 8.97409 6.80262C8.7199 5.69866 8.5462 4.75279 8.43691 3.82326C8.20224 1.82755 10.4856 0.665652 12.0121 1.97245C12.9267 2.75539 13.8098 3.61393 14.8817 4.73615C16.1434 4.04778 17.1819 3.53037 18.2258 3.07989Z" stroke="#F6F6F5" stroke-width="1.71415" stroke-linejoin="round"/>
</g>
<defs>
<clipPath id="clip0_127_34">
<rect width="23.998" height="23.998" fill="white"/>
</clipPath>
</defs>
</svg>
